<?xml version="1.0" encoding="UTF-8" standalone="no"?>
<!-- Created with Inkscape (http://www.inkscape.org/) -->

<svg
   version="1.1"
   id="svg1"
   width="207.36"
   height="207.36"
   viewBox="0 0 207.36 207.36"
   sodipodi:docname="pfp.svg"
   inkscape:version="1.3 (0e150ed6c4, 2023-07-21)"
   xmlns:inkscape="http://www.inkscape.org/namespaces/inkscape"
   xmlns:sodipodi="http://sodipodi.sourceforge.net/DTD/sodipodi-0.dtd"
   xmlns="http://www.w3.org/2000/svg"
   xmlns:svg="http://www.w3.org/2000/svg">
  <defs
     id="defs1" />
  <sodipodi:namedview
     id="namedview1"
     pagecolor="#505050"
     bordercolor="#eeeeee"
     borderopacity="1"
     inkscape:showpageshadow="0"
     inkscape:pageopacity="0"
     inkscape:pagecheckerboard="0"
     inkscape:deskcolor="#505050"
     inkscape:zoom="3.1828704"
     inkscape:cx="103.68"
     inkscape:cy="103.68"
     inkscape:window-width="1600"
     inkscape:window-height="864"
     inkscape:window-x="0"
     inkscape:window-y="0"
     inkscape:window-maximized="1"
     inkscape:current-layer="g1" />
  <g
     inkscape:groupmode="layer"
     inkscape:label="Image"
     id="g1">
    <path
       style="fill:#ffffff;stroke:#000000;stroke-width:4;stroke-linecap:round;stroke-linejoin:round;fill-opacity:1;stroke-dasharray:none"
       d="M 45.242182,207.04582 44.928,197.30618 5.3410909,191.96509 3.1418182,101.16655 103.68,97.710546 l 98.65309,1.885091 1.57091,89.227633 -40.84363,7.22618 0.31418,10.68219 z"
       id="path1"
       sodipodi:nodetypes="cccccccccc" />
    <path
       style="fill:none;stroke:#000000;stroke-width:4;stroke-linecap:round;stroke-linejoin:round;stroke-dasharray:none"
       d="m 2.8276364,101.48073 98.6530936,0.94254 99.28145,-1.25672"
       id="path2"
       sodipodi:nodetypes="ccc" />
    <path
       style="fill:none;stroke:#000000;stroke-width:4;stroke-linecap:round;stroke-linejoin:round;stroke-dasharray:none"
       d="m 100.53818,103.68 1.88509,86.71418 0.31418,4.71273 0.31419,10.05382"
       id="path3" />
    <path
       style="fill:none;stroke:#000000;stroke-width:4;stroke-linecap:round;stroke-linejoin:round;stroke-dasharray:none"
       d="m 5.9694546,190.70837 96.4538154,0.62836 99.90982,-2.51346"
       id="path4"
       sodipodi:nodetypes="ccc" />
    <path
       style="fill:none;stroke:#000000;stroke-width:4;stroke-linecap:round;stroke-linejoin:round;stroke-dasharray:none"
       d="m 43.357091,197.30618 58.437819,0.31418 60.63709,-0.94254"
       id="path5" />
    <path
       style="fill:none;stroke:#000000;stroke-width:4;stroke-linecap:round;stroke-linejoin:round;stroke-dasharray:none"
       d="m 102.73746,99.909815 c 0.9139,-2.537415 6.21725,-35.988583 -0.94255,-55.92436 -2.860595,-7.965046 -7.453259,-23.056618 -7.854546,-27.019637"
       id="path6"
       sodipodi:nodetypes="csc" />
    <path
       style="fill:#ffffff;stroke:#000000;stroke-width:4;stroke-linecap:round;stroke-linejoin:round;fill-opacity:1;stroke-dasharray:none"
       id="path7"
       sodipodi:type="arc"
       sodipodi:cx="92.369453"
       sodipodi:cy="9.4254541"
       sodipodi:rx="6.5978184"
       sodipodi:ry="6.5978184"
       sodipodi:start="0"
       sodipodi:end="6.2512435"
       sodipodi:arc-type="chord"
       d="M 98.967272,9.4254541 A 6.5978184,6.5978184 0 0 1 92.422139,16.023062 6.5978184,6.5978184 0 0 1 85.772476,9.5308228 6.5978184,6.5978184 0 0 1 92.211409,2.8295289 6.5978184,6.5978184 0 0 1 98.963906,9.2147437 Z"
       sodipodi:open="true" />
    <path
       style="fill:#000000;stroke:#000000;stroke-width:4;stroke-linecap:round;stroke-linejoin:round;fill-opacity:1;stroke-dasharray:none"
       id="path8"
       sodipodi:type="arc"
       sodipodi:cx="127.872"
       sodipodi:cy="131.328"
       sodipodi:rx="12.253091"
       sodipodi:ry="16.023273"
       sodipodi:start="0"
       sodipodi:end="6.2512435"
       sodipodi:open="true"
       sodipodi:arc-type="chord"
       d="m 140.12509,131.328 a 12.253091,16.023273 0 0 1 -12.15524,16.02277 12.253091,16.023273 0 0 1 -12.34938,-15.76687 12.253091,16.023273 0 0 1 11.95802,-16.27457 12.253091,16.023273 0 0 1 12.54035,15.50695 z" />
    <path
       style="fill:#000000;stroke:#000000;stroke-width:4;stroke-linecap:round;stroke-linejoin:round;fill-opacity:1;stroke-dasharray:none"
       id="path9"
       sodipodi:type="arc"
       sodipodi:cx="178.1411"
       sodipodi:cy="130.07127"
       sodipodi:rx="10.996364"
       sodipodi:ry="15.709091"
       sodipodi:start="0"
       sodipodi:end="6.2512435"
       sodipodi:open="true"
       sodipodi:arc-type="chord"
       d="m 189.13746,130.07127 a 10.996364,15.709091 0 0 1 -10.90855,15.70859 10.996364,15.709091 0 0 1 -11.08277,-15.45771 10.996364,15.709091 0 0 1 10.73155,-15.95546 10.996364,15.709091 0 0 1 11.25416,15.20289 z" />
  </g>
</svg>
